<svg width="24" height="24" viewBox="0 0 24 24" fill="none" xmlns="http://www.w3.org/2000/svg">
<g clip-path="url(#clip0)">
<g filter="url(#filter0_d)">
<path d="M21 10.41H18.5C18.3677 10.4106 18.2368 10.4373 18.1149 10.4888C17.9931 10.5403 17.8826 10.6155 17.79 10.71L16.55 12L13.75 8.81C13.6565 8.71009 13.5434 8.63044 13.4178 8.57599C13.2923 8.52154 13.1569 8.49345 13.02 8.49345C12.8831 8.49345 12.7477 8.52154 12.6222 8.57599C12.4966 8.63044 12.3835 8.71009 12.29 8.81L10.59 10.51H9C8.73479 10.51 8.48043 10.6154 8.2929 10.8029C8.10536 10.9904 8 11.2448 8 11.51C8 11.7752 8.10536 12.0296 8.2929 12.2171C8.48043 12.4046 8.73479 12.51 9 12.51H11C11.1316 12.5108 11.2621 12.4855 11.3839 12.4358C11.5057 12.386 11.6166 12.3127 11.71 12.22L13 10.88L15.8 14.07C15.8903 14.173 16.0009 14.2563 16.1247 14.3148C16.2486 14.3732 16.3831 14.4057 16.52 14.41C16.6516 14.4108 16.7821 14.3855 16.9039 14.3358C17.0257 14.286 17.1366 14.2127 17.23 14.12L18.93 12.41H21C21.2652 12.41 21.5196 12.3046 21.7071 12.1171C21.8946 11.9296 22 11.6752 22 11.41C22 11.1448 21.8946 10.8904 21.7071 10.7029C21.5196 10.5154 21.2652 10.41 21 10.41ZM13.61 15.71L11.71 17.61C11.617 17.7037 11.5064 17.7781 11.3846 17.8289C11.2627 17.8797 11.132 17.9058 11 17.9058C10.868 17.9058 10.7373 17.8797 10.6154 17.8289C10.4936 17.7781 10.383 17.7037 10.29 17.61L5.08 12.4C4.73712 12.0573 4.46512 11.6504 4.27955 11.2026C4.09397 10.7548 3.99845 10.2748 3.99845 9.79C3.99845 9.30524 4.09397 8.82523 4.27955 8.37739C4.46512 7.92956 4.73712 7.52268 5.08 7.18C5.77167 6.49057 6.70842 6.10344 7.685 6.10344C8.66158 6.10344 9.59834 6.49057 10.29 7.18C10.383 7.27373 10.4936 7.34812 10.6154 7.39889C10.7373 7.44966 10.868 7.4758 11 7.4758C11.132 7.4758 11.2627 7.44966 11.3846 7.39889C11.5064 7.34812 11.617 7.27373 11.71 7.18C12.4127 6.51172 13.3453 6.13905 14.315 6.13905C15.2847 6.13905 16.2173 6.51172 16.92 7.18C17.1428 7.40574 17.3376 7.65757 17.5 7.93C17.6456 8.13021 17.8603 8.2693 18.1025 8.32035C18.3448 8.3714 18.5973 8.33077 18.8114 8.20635C19.0254 8.08192 19.1856 7.88253 19.2611 7.64675C19.3366 7.41098 19.322 7.15559 19.22 6.93C18.9728 6.51955 18.6774 6.14018 18.34 5.8C17.391 4.83985 16.131 4.2491 14.786 4.13366C13.4409 4.01821 12.0987 4.38561 11 5.17C10.1509 4.5583 9.14923 4.19308 8.10564 4.11465C7.06206 4.03623 6.01709 4.24764 5.08606 4.72557C4.15504 5.2035 3.37415 5.92935 2.82957 6.82303C2.285 7.71671 1.99792 8.74347 2 9.79C1.9997 10.5341 2.14717 11.2708 2.43385 11.9575C2.72052 12.6441 3.1407 13.267 3.67 13.79L8.88 19C9.44251 19.5618 10.205 19.8774 11 19.8774C11.795 19.8774 12.5575 19.5618 13.12 19L15 17.12C15.1863 16.9326 15.2908 16.6792 15.2908 16.415C15.2908 16.1508 15.1863 15.8974 15 15.71C14.8135 15.5298 14.5643 15.429 14.305 15.429C14.0457 15.429 13.7965 15.5298 13.61 15.71Z" fill="white"/>
</g>
</g>
<defs>
<filter id="filter0_d" x="-3.00001" y="3.09868" width="30" height="25.7787" filterUnits="userSpaceOnUse" color-interpolation-filters="sRGB">
<feFlood flood-opacity="0" result="BackgroundImageFix"/>
<feColorMatrix in="SourceAlpha" type="matrix" values="0 0 0 0 0 0 0 0 0 0 0 0 0 0 0 0 0 0 127 0"/>
<feOffset dy="4"/>
<feGaussianBlur stdDeviation="2.5"/>
<feColorMatrix type="matrix" values="0 0 0 0 0.0238889 0 0 0 0 0.358333 0 0 0 0 0.1978 0 0 0 0.3 0"/>
<feBlend mode="normal" in2="BackgroundImageFix" result="effect1_dropShadow"/>
<feBlend mode="normal" in="SourceGraphic" in2="effect1_dropShadow" result="shape"/>
</filter>
<clipPath id="clip0">
<rect width="24" height="24" fill="white"/>
</clipPath>
</defs>
</svg>
