<svg width="30" height="30" viewBox="0 0 30 30" fill="none" xmlns="http://www.w3.org/2000/svg">
<g clip-path="url(#clip0)">
<g filter="url(#filter0_d)">
<path d="M4.1625 17.8875L12.5 22.7C13.007 22.9912 13.5816 23.1442 14.1663 23.1435C14.751 23.1429 15.3253 22.9886 15.8316 22.6962C16.3379 22.4038 16.7585 21.9835 17.0513 21.4774C17.3442 20.9713 17.4989 20.3972 17.5 19.8125L22.5 22.7C23.007 22.9912 23.5816 23.1442 24.1663 23.1435C24.751 23.1429 25.3253 22.9886 25.8316 22.6962C26.3379 22.4038 26.7585 21.9835 27.0513 21.4774C27.3442 20.9713 27.4989 20.3972 27.5 19.8125L27.5 10.1875C27.5031 9.60384 27.3507 9.0299 27.0585 8.52463C26.7663 8.01936 26.3449 7.60099 25.8375 7.3125C25.3312 7.00974 24.7524 6.8499 24.1625 6.84999C23.5787 6.85312 23.0057 7.00821 22.5 7.29999L17.5 10.1875C17.5027 9.60223 17.3503 9.02671 17.0582 8.5195C16.7662 8.0123 16.345 7.59152 15.8375 7.29999C15.3306 7.00584 14.7549 6.85091 14.1688 6.85091C13.5826 6.85091 13.0069 7.00584 12.5 7.29999L4.1625 12.1125C3.65648 12.4058 3.23642 12.8269 2.94441 13.3337C2.6524 13.8405 2.49869 14.4151 2.49869 15C2.49869 15.5849 2.6524 16.1595 2.94441 16.6663C3.23642 17.173 3.65648 17.5942 4.1625 17.8875ZM17.5 13.075L23.75 9.47499C23.8762 9.40353 24.0188 9.36607 24.1639 9.36628C24.3089 9.36648 24.4514 9.40435 24.5774 9.47617C24.7034 9.548 24.8086 9.65131 24.8827 9.776C24.9568 9.90069 24.9972 10.0425 25 10.1875L25 19.8125C24.9972 19.9575 24.9568 20.0993 24.8827 20.224C24.8086 20.3487 24.7034 20.452 24.5774 20.5238C24.4514 20.5956 24.3089 20.6335 24.1639 20.6337C24.0188 20.6339 23.8762 20.5965 23.75 20.525L17.5 16.925L17.5 13.075ZM5.4125 14.325L13.75 9.46249C13.8781 9.39135 14.0222 9.35402 14.1688 9.35402C14.3153 9.35402 14.4594 9.39135 14.5875 9.46249C14.7145 9.53579 14.8196 9.64159 14.8921 9.76902C14.9646 9.89645 15.0019 10.0409 15 10.1875L15 19.8125C15.0019 19.9591 14.9646 20.1035 14.8921 20.231C14.8196 20.3584 14.7145 20.4642 14.5875 20.5375C14.4562 20.6069 14.3109 20.6453 14.1625 20.65C14.0173 20.6513 13.8745 20.6123 13.75 20.5375L5.4125 15.725C5.28532 15.6514 5.17973 15.5457 5.10632 15.4185C5.03291 15.2912 4.99427 15.1469 4.99427 15C4.99427 14.8531 5.03291 14.7088 5.10632 14.5815C5.17973 14.4542 5.28532 14.3485 5.4125 14.275L5.4125 14.325Z" fill="white"/>
</g>
</g>
<defs>
<filter id="filter0_d" x="-2.5013" y="5.84999" width="35.0014" height="26.2935" filterUnits="userSpaceOnUse" color-interpolation-filters="sRGB">
<feFlood flood-opacity="0" result="BackgroundImageFix"/>
<feColorMatrix in="SourceAlpha" type="matrix" values="0 0 0 0 0 0 0 0 0 0 0 0 0 0 0 0 0 0 127 0"/>
<feOffset dy="4"/>
<feGaussianBlur stdDeviation="2.5"/>
<feColorMatrix type="matrix" values="0 0 0 0 0.0238889 0 0 0 0 0.358333 0 0 0 0 0.1978 0 0 0 0.3 0"/>
<feBlend mode="normal" in2="BackgroundImageFix" result="effect1_dropShadow"/>
<feBlend mode="normal" in="SourceGraphic" in2="effect1_dropShadow" result="shape"/>
</filter>
<clipPath id="clip0">
<rect width="30" height="30" fill="white" transform="translate(30 30) rotate(-180)"/>
</clipPath>
</defs>
</svg>
