<svg width="36" height="36" viewBox="0 0 36 36" fill="none" xmlns="http://www.w3.org/2000/svg">
<g filter="url(#filter0_d)">
<path d="M18 8.74194C17.6792 8.74194 17.3715 8.86939 17.1446 9.09625C16.9178 9.3231 16.7903 9.63079 16.7903 9.95162V22.0484C16.7903 22.3692 16.9178 22.6769 17.1446 22.9038C17.3715 23.1306 17.6792 23.2581 18 23.2581C18.3208 23.2581 18.6285 23.1306 18.8554 22.9038C19.0822 22.6769 19.2097 22.3692 19.2097 22.0484V9.95162C19.2097 9.63079 19.0822 9.3231 18.8554 9.09625C18.6285 8.86939 18.3208 8.74194 18 8.74194ZM11.9516 16C11.6308 16 11.3231 16.1275 11.0962 16.3543C10.8694 16.5812 10.7419 16.8889 10.7419 17.2097V22.0484C10.7419 22.3692 10.8694 22.6769 11.0962 22.9038C11.3231 23.1306 11.6308 23.2581 11.9516 23.2581C12.2724 23.2581 12.5801 23.1306 12.807 22.9038C13.0338 22.6769 13.1613 22.3692 13.1613 22.0484V17.2097C13.1613 16.8889 13.0338 16.5812 12.807 16.3543C12.5801 16.1275 12.2724 16 11.9516 16ZM24.0484 13.5806C23.7276 13.5806 23.4199 13.7081 23.193 13.935C22.9662 14.1618 22.8387 14.4695 22.8387 14.7903V22.0484C22.8387 22.3692 22.9662 22.6769 23.193 22.9038C23.4199 23.1306 23.7276 23.2581 24.0484 23.2581C24.3692 23.2581 24.6769 23.1306 24.9038 22.9038C25.1306 22.6769 25.2581 22.3692 25.2581 22.0484V14.7903C25.2581 14.4695 25.1306 14.1618 24.9038 13.935C24.6769 13.7081 24.3692 13.5806 24.0484 13.5806ZM26.4677 3.90323H9.53226C8.56978 3.90323 7.64672 4.28557 6.96614 4.96615C6.28557 5.64672 5.90322 6.56978 5.90322 7.53226V24.4677C5.90322 25.4302 6.28557 26.3533 6.96614 27.0339C7.64672 27.7144 8.56978 28.0968 9.53226 28.0968H26.4677C27.4302 28.0968 28.3533 27.7144 29.0339 27.0339C29.7144 26.3533 30.0968 25.4302 30.0968 24.4677V7.53226C30.0968 6.56978 29.7144 5.64672 29.0339 4.96615C28.3533 4.28557 27.4302 3.90323 26.4677 3.90323ZM27.6774 24.4677C27.6774 24.7886 27.55 25.0963 27.3231 25.3231C27.0963 25.55 26.7886 25.6774 26.4677 25.6774H9.53226C9.21143 25.6774 8.90374 25.55 8.67689 25.3231C8.45003 25.0963 8.32258 24.7886 8.32258 24.4677V7.53226C8.32258 7.21143 8.45003 6.90375 8.67689 6.67689C8.90374 6.45003 9.21143 6.32258 9.53226 6.32258H26.4677C26.7886 6.32258 27.0963 6.45003 27.3231 6.67689C27.55 6.90375 27.6774 7.21143 27.6774 7.53226V24.4677Z" fill="white"/>
</g>
<defs>
<filter id="filter0_d" x="0.903225" y="0.903229" width="34.1936" height="34.1936" filterUnits="userSpaceOnUse" color-interpolation-filters="sRGB">
<feFlood flood-opacity="0" result="BackgroundImageFix"/>
<feColorMatrix in="SourceAlpha" type="matrix" values="0 0 0 0 0 0 0 0 0 0 0 0 0 0 0 0 0 0 127 0"/>
<feOffset dy="2"/>
<feGaussianBlur stdDeviation="2.5"/>
<feColorMatrix type="matrix" values="0 0 0 0 0.0238889 0 0 0 0 0.358333 0 0 0 0 0.1978 0 0 0 0.3 0"/>
<feBlend mode="normal" in2="BackgroundImageFix" result="effect1_dropShadow"/>
<feBlend mode="normal" in="SourceGraphic" in2="effect1_dropShadow" result="shape"/>
</filter>
</defs>
</svg>
