<svg width="30" height="30" viewBox="0 0 30 30" fill="none" xmlns="http://www.w3.org/2000/svg">
<path d="M15 12.5C14.5055 12.5 14.0222 12.6466 13.6111 12.9213C13.2 13.196 12.8795 13.5865 12.6903 14.0433C12.5011 14.5001 12.4516 15.0028 12.548 15.4877C12.6445 15.9727 12.8826 16.4181 13.2322 16.7678C13.5819 17.1174 14.0273 17.3555 14.5123 17.452C14.9972 17.5484 15.4999 17.4989 15.9567 17.3097C16.4135 17.1205 16.804 16.8 17.0787 16.3889C17.3534 15.9778 17.5 15.4945 17.5 15C17.5 14.337 17.2366 13.7011 16.7678 13.2322C16.2989 12.7634 15.663 12.5 15 12.5ZM6.25 12.5C5.75555 12.5 5.2722 12.6466 4.86108 12.9213C4.44995 13.196 4.12952 13.5865 3.9403 14.0433C3.75108 14.5001 3.70157 15.0028 3.79804 15.4877C3.8945 15.9727 4.1326 16.4181 4.48223 16.7678C4.83187 17.1174 5.27732 17.3555 5.76228 17.452C6.24723 17.5484 6.74989 17.4989 7.20671 17.3097C7.66353 17.1205 8.05397 16.8 8.32868 16.3889C8.60338 15.9778 8.75 15.4945 8.75 15C8.75 14.337 8.48661 13.7011 8.01777 13.2322C7.54893 12.7634 6.91304 12.5 6.25 12.5ZM23.75 12.5C23.2555 12.5 22.7722 12.6466 22.3611 12.9213C21.95 13.196 21.6295 13.5865 21.4403 14.0433C21.2511 14.5001 21.2016 15.0028 21.298 15.4877C21.3945 15.9727 21.6326 16.4181 21.9822 16.7678C22.3319 17.1174 22.7773 17.3555 23.2623 17.452C23.7472 17.5484 24.2499 17.4989 24.7067 17.3097C25.1635 17.1205 25.554 16.8 25.8287 16.3889C26.1034 15.9778 26.25 15.4945 26.25 15C26.25 14.337 25.9866 13.7011 25.5178 13.2322C25.0489 12.7634 24.413 12.5 23.75 12.5Z" fill="black"/>
</svg>
