<svg width="30" height="30" viewBox="0 0 30 30" fill="none" xmlns="http://www.w3.org/2000/svg">
<g clip-path="url(#clip0)">
<g filter="url(#filter0_d)">
<path d="M25.8375 12.1125L17.5 7.30001C16.993 7.00875 16.4184 6.8558 15.8337 6.85646C15.249 6.85713 14.6747 7.01138 14.1684 7.30379C13.6621 7.59619 13.2415 8.01648 12.9487 8.52258C12.6558 9.02867 12.5011 9.60281 12.5 10.1875L7.5 7.30001C6.99301 7.00875 6.4184 6.8558 5.8337 6.85646C5.24901 6.85713 4.67475 7.01138 4.16842 7.30379C3.66209 7.59619 3.24146 8.01648 2.94865 8.52258C2.65585 9.02867 2.50113 9.60281 2.5 10.1875V19.8125C2.49695 20.3962 2.64934 20.9701 2.94152 21.4754C3.23369 21.9806 3.65512 22.399 4.1625 22.6875C4.66875 22.9903 5.24762 23.1501 5.8375 23.15C6.42134 23.1469 6.9943 22.9918 7.5 22.7L12.5 19.8125C12.4973 20.3978 12.6498 20.9733 12.9418 21.4805C13.2338 21.9877 13.655 22.4085 14.1625 22.7C14.6694 22.9942 15.2451 23.1491 15.8312 23.1491C16.4174 23.1491 16.9931 22.9942 17.5 22.7L25.8375 17.8875C26.3435 17.5942 26.7636 17.1731 27.0556 16.6663C27.3476 16.1595 27.5013 15.5849 27.5013 15C27.5013 14.4151 27.3476 13.8405 27.0556 13.3337C26.7636 12.827 26.3435 12.4058 25.8375 12.1125ZM12.5 16.925L6.25 20.525C6.12379 20.5965 5.98119 20.6339 5.83615 20.6337C5.69111 20.6335 5.54861 20.5956 5.42261 20.5238C5.2966 20.452 5.19141 20.3487 5.11733 20.224C5.04325 20.0993 5.00282 19.9575 5 19.8125V10.1875C5.00282 10.0425 5.04325 9.9007 5.11733 9.77601C5.19141 9.65132 5.2966 9.54801 5.42261 9.47618C5.54861 9.40436 5.69111 9.36649 5.83615 9.36629C5.98119 9.36608 6.12379 9.40354 6.25 9.475L12.5 13.075V16.925ZM24.5875 15.675L16.25 20.5375C16.1219 20.6086 15.9778 20.646 15.8312 20.646C15.6847 20.646 15.5406 20.6086 15.4125 20.5375C15.2855 20.4642 15.1804 20.3584 15.1079 20.231C15.0354 20.1035 14.9981 19.9591 15 19.8125V10.1875C14.9981 10.0409 15.0354 9.89646 15.1079 9.76903C15.1804 9.6416 15.2855 9.5358 15.4125 9.46251C15.5438 9.39314 15.6891 9.35466 15.8375 9.35001C15.9827 9.34875 16.1255 9.38768 16.25 9.46251L24.5875 14.275C24.7147 14.3486 24.8203 14.4543 24.8937 14.5815C24.9671 14.7088 25.0057 14.8531 25.0057 15C25.0057 15.1469 24.9671 15.2912 24.8937 15.4185C24.8203 15.5458 24.7147 15.6515 24.5875 15.725V15.675Z" fill="white"/>
</g>
</g>
<defs>
<filter id="filter0_d" x="-2.50005" y="5.85646" width="35.0014" height="26.2935" filterUnits="userSpaceOnUse" color-interpolation-filters="sRGB">
<feFlood flood-opacity="0" result="BackgroundImageFix"/>
<feColorMatrix in="SourceAlpha" type="matrix" values="0 0 0 0 0 0 0 0 0 0 0 0 0 0 0 0 0 0 127 0"/>
<feOffset dy="4"/>
<feGaussianBlur stdDeviation="2.5"/>
<feColorMatrix type="matrix" values="0 0 0 0 0.0238889 0 0 0 0 0.358333 0 0 0 0 0.1978 0 0 0 0.3 0"/>
<feBlend mode="normal" in2="BackgroundImageFix" result="effect1_dropShadow"/>
<feBlend mode="normal" in="SourceGraphic" in2="effect1_dropShadow" result="shape"/>
</filter>
<clipPath id="clip0">
<rect width="30" height="30" fill="white"/>
</clipPath>
</defs>
</svg>
