<svg width="103" height="29" viewBox="0 0 103 29" fill="none" xmlns="http://www.w3.org/2000/svg">
<g filter="url(#filter0_dd)">
<path d="M7.71756 10.952V7.528H9.66956C9.95756 7.528 10.2349 7.54933 10.5016 7.592C10.7682 7.63467 11.0029 7.72 11.2056 7.848C11.4082 7.96533 11.5682 8.136 11.6856 8.36C11.8136 8.584 11.8776 8.87733 11.8776 9.24C11.8776 9.60267 11.8136 9.896 11.6856 10.12C11.5682 10.344 11.4082 10.52 11.2056 10.648C11.0029 10.7653 10.7682 10.8453 10.5016 10.888C10.2349 10.9307 9.95756 10.952 9.66956 10.952H7.71756ZM5.20556 5.576V17H7.71756V12.904H10.3576C11.0722 12.904 11.6802 12.8027 12.1816 12.6C12.6829 12.3867 13.0882 12.1093 13.3976 11.768C13.7176 11.4267 13.9469 11.0373 14.0856 10.6C14.2349 10.152 14.3096 9.69867 14.3096 9.24C14.3096 8.77067 14.2349 8.31733 14.0856 7.88C13.9469 7.44267 13.7176 7.05333 13.3976 6.712C13.0882 6.37067 12.6829 6.09867 12.1816 5.896C11.6802 5.68267 11.0722 5.576 10.3576 5.576H5.20556ZM15.7014 5.576V17H17.9734V5.576H15.7014ZM19.6664 11.272H21.9384C21.9811 10.824 22.1304 10.504 22.3864 10.312C22.6424 10.12 22.9944 10.024 23.4424 10.024C23.6451 10.024 23.8318 10.04 24.0024 10.072C24.1838 10.0933 24.3384 10.1467 24.4664 10.232C24.6051 10.3067 24.7118 10.4187 24.7864 10.568C24.8718 10.7067 24.9144 10.8987 24.9144 11.144C24.9251 11.3787 24.8558 11.56 24.7064 11.688C24.5571 11.8053 24.3544 11.896 24.0984 11.96C23.8424 12.024 23.5491 12.072 23.2184 12.104C22.8878 12.136 22.5518 12.1787 22.2104 12.232C21.8691 12.2853 21.5278 12.36 21.1864 12.456C20.8558 12.5413 20.5571 12.6747 20.2904 12.856C20.0344 13.0373 19.8211 13.2827 19.6504 13.592C19.4904 13.8907 19.4104 14.2747 19.4104 14.744C19.4104 15.1707 19.4798 15.5387 19.6184 15.848C19.7678 16.1573 19.9704 16.4133 20.2264 16.616C20.4824 16.8187 20.7811 16.968 21.1224 17.064C21.4638 17.16 21.8318 17.208 22.2264 17.208C22.7384 17.208 23.2398 17.1333 23.7304 16.984C24.2211 16.8347 24.6478 16.5733 25.0104 16.2C25.0211 16.3387 25.0371 16.4773 25.0584 16.616C25.0904 16.744 25.1278 16.872 25.1704 17H27.4744C27.3678 16.8293 27.2931 16.5733 27.2504 16.232C27.2078 15.8907 27.1864 15.5333 27.1864 15.16V10.856C27.1864 10.3547 27.0744 9.95467 26.8504 9.656C26.6264 9.34667 26.3384 9.10667 25.9864 8.936C25.6344 8.76533 25.2451 8.65333 24.8184 8.6C24.3918 8.536 23.9704 8.504 23.5544 8.504C23.0958 8.504 22.6371 8.552 22.1784 8.648C21.7304 8.73333 21.3251 8.88267 20.9624 9.096C20.5998 9.30933 20.3011 9.592 20.0664 9.944C19.8318 10.296 19.6984 10.7387 19.6664 11.272ZM24.9144 12.952V13.8C24.9144 13.928 24.8984 14.0987 24.8664 14.312C24.8451 14.5253 24.7758 14.7387 24.6584 14.952C24.5411 15.1547 24.3598 15.3307 24.1144 15.48C23.8691 15.6293 23.5224 15.704 23.0744 15.704C22.8931 15.704 22.7171 15.688 22.5464 15.656C22.3758 15.624 22.2264 15.5707 22.0984 15.496C21.9704 15.4107 21.8691 15.2987 21.7944 15.16C21.7198 15.0213 21.6824 14.8507 21.6824 14.648C21.6824 14.4347 21.7198 14.2587 21.7944 14.12C21.8691 13.9813 21.9651 13.8693 22.0824 13.784C22.2104 13.688 22.3544 13.6133 22.5144 13.56C22.6851 13.5067 22.8558 13.464 23.0264 13.432C23.2078 13.4 23.3891 13.3733 23.5704 13.352C23.7518 13.3307 23.9224 13.304 24.0824 13.272C24.2531 13.24 24.4078 13.2027 24.5464 13.16C24.6958 13.1067 24.8184 13.0373 24.9144 12.952ZM33.0299 18.024L36.4859 8.728H34.1339L32.3259 14.392H32.2939L30.4219 8.728H28.0059L30.9019 16.488C30.9659 16.648 30.9979 16.8187 30.9979 17C30.9979 17.2453 30.9233 17.4693 30.7739 17.672C30.6353 17.8747 30.4166 17.992 30.1179 18.024C29.8939 18.0347 29.6699 18.0293 29.4459 18.008C29.2219 17.9867 29.0033 17.9653 28.7899 17.944V19.816C29.0246 19.8373 29.2539 19.8533 29.4779 19.864C29.7126 19.8853 29.9473 19.896 30.1819 19.896C30.9606 19.896 31.5686 19.752 32.0059 19.464C32.4433 19.176 32.7846 18.696 33.0299 18.024ZM39.5828 7.448V5.576H37.3108V7.448H39.5828ZM37.3108 8.728V17H39.5828V8.728H37.3108ZM41.3718 8.728V17H43.6438V12.664C43.6438 11.8213 43.7825 11.2187 44.0598 10.856C44.3371 10.4827 44.7851 10.296 45.4038 10.296C45.9478 10.296 46.3265 10.4667 46.5398 10.808C46.7531 11.1387 46.8598 11.6453 46.8598 12.328V17H49.1318V11.912C49.1318 11.4 49.0838 10.936 48.9878 10.52C48.9025 10.0933 48.7478 9.736 48.5238 9.448C48.2998 9.14933 47.9905 8.92 47.5958 8.76C47.2118 8.58933 46.7158 8.504 46.1078 8.504C45.6278 8.504 45.1585 8.616 44.6998 8.84C44.2411 9.05333 43.8678 9.4 43.5798 9.88H43.5318V8.728H41.3718ZM54.7122 15.048C54.3602 15.048 54.0669 14.9733 53.8322 14.824C53.5975 14.6747 53.4055 14.4827 53.2562 14.248C53.1175 14.0133 53.0162 13.752 52.9522 13.464C52.8989 13.1653 52.8722 12.8667 52.8722 12.568C52.8722 12.2587 52.9042 11.9653 52.9682 11.688C53.0429 11.4 53.1549 11.1493 53.3042 10.936C53.4642 10.712 53.6562 10.536 53.8802 10.408C54.1149 10.28 54.3922 10.216 54.7122 10.216C55.0855 10.216 55.3949 10.2853 55.6402 10.424C55.8855 10.5627 56.0829 10.7493 56.2322 10.984C56.3815 11.2187 56.4882 11.4907 56.5522 11.8C56.6162 12.0987 56.6482 12.4187 56.6482 12.76C56.6482 13.0587 56.6055 13.3467 56.5202 13.624C56.4455 13.8907 56.3282 14.1307 56.1682 14.344C56.0082 14.5573 55.8055 14.728 55.5602 14.856C55.3149 14.984 55.0322 15.048 54.7122 15.048ZM58.8082 16.472V8.728H56.6482V9.832H56.6162C56.3389 9.352 55.9922 9.01067 55.5762 8.808C55.1709 8.60533 54.6962 8.504 54.1522 8.504C53.5762 8.504 53.0642 8.616 52.6162 8.84C52.1789 9.064 51.8109 9.368 51.5122 9.752C51.2135 10.1253 50.9842 10.5627 50.8242 11.064C50.6749 11.5547 50.6002 12.0667 50.6002 12.6C50.6002 13.1653 50.6642 13.704 50.7922 14.216C50.9309 14.7173 51.1442 15.16 51.4322 15.544C51.7202 15.9173 52.0882 16.216 52.5362 16.44C52.9842 16.6533 53.5175 16.76 54.1362 16.76C54.6375 16.76 55.1122 16.6587 55.5602 16.456C56.0189 16.2427 56.3709 15.9173 56.6162 15.48H56.6482V16.568C56.6589 17.1547 56.5149 17.64 56.2162 18.024C55.9282 18.408 55.4642 18.6 54.8242 18.6C54.4189 18.6 54.0615 18.5147 53.7522 18.344C53.4429 18.184 53.2349 17.8907 53.1282 17.464H50.8722C50.9042 17.9333 51.0322 18.3333 51.2562 18.664C51.4909 19.0053 51.7789 19.2827 52.1202 19.496C52.4722 19.7093 52.8562 19.864 53.2722 19.96C53.6989 20.0667 54.1149 20.12 54.5202 20.12C55.4695 20.12 56.2269 19.992 56.7922 19.736C57.3575 19.48 57.7895 19.1653 58.0882 18.792C58.3869 18.4293 58.5789 18.0347 58.6642 17.608C58.7602 17.1813 58.8082 16.8027 58.8082 16.472ZM65.3306 5.576V17H67.6826V9.352H67.7146L72.4666 17H74.9786V5.576H72.6266V13.24H72.5946L67.8266 5.576H65.3306ZM78.9659 12.872C78.9659 12.5413 78.9979 12.216 79.0619 11.896C79.1259 11.576 79.2326 11.2933 79.3819 11.048C79.5419 10.8027 79.7499 10.6053 80.0059 10.456C80.2619 10.296 80.5819 10.216 80.9659 10.216C81.3499 10.216 81.6699 10.296 81.9259 10.456C82.1926 10.6053 82.4006 10.8027 82.5499 11.048C82.7099 11.2933 82.8219 11.576 82.8859 11.896C82.9499 12.216 82.9819 12.5413 82.9819 12.872C82.9819 13.2027 82.9499 13.528 82.8859 13.848C82.8219 14.1573 82.7099 14.44 82.5499 14.696C82.4006 14.9413 82.1926 15.1387 81.9259 15.288C81.6699 15.4373 81.3499 15.512 80.9659 15.512C80.5819 15.512 80.2619 15.4373 80.0059 15.288C79.7499 15.1387 79.5419 14.9413 79.3819 14.696C79.2326 14.44 79.1259 14.1573 79.0619 13.848C78.9979 13.528 78.9659 13.2027 78.9659 12.872ZM76.6939 12.872C76.6939 13.5333 76.7953 14.1307 76.9979 14.664C77.2006 15.1973 77.4886 15.656 77.8619 16.04C78.2353 16.4133 78.6833 16.7013 79.2059 16.904C79.7286 17.1067 80.3153 17.208 80.9659 17.208C81.6166 17.208 82.2033 17.1067 82.7259 16.904C83.2593 16.7013 83.7126 16.4133 84.0859 16.04C84.4593 15.656 84.7473 15.1973 84.9499 14.664C85.1526 14.1307 85.2539 13.5333 85.2539 12.872C85.2539 12.2107 85.1526 11.6133 84.9499 11.08C84.7473 10.536 84.4593 10.0773 84.0859 9.704C83.7126 9.32 83.2593 9.02667 82.7259 8.824C82.2033 8.61067 81.6166 8.504 80.9659 8.504C80.3153 8.504 79.7286 8.61067 79.2059 8.824C78.6833 9.02667 78.2353 9.32 77.8619 9.704C77.4886 10.0773 77.2006 10.536 76.9979 11.08C76.7953 11.6133 76.6939 12.2107 76.6939 12.872ZM96.1872 17L98.7952 8.728H96.4592L94.9392 14.328H94.9072L93.4992 8.728H91.2912L89.9152 14.344H89.8832L88.3632 8.728H85.9632L88.5872 17H90.9392L92.3472 11.448H92.3792L93.8512 17H96.1872Z" fill="white"/>
</g>
<defs>
<filter id="filter0_dd" x="0.205566" y="0.575989" width="102.59" height="27.544" filterUnits="userSpaceOnUse" color-interpolation-filters="sRGB">
<feFlood flood-opacity="0" result="BackgroundImageFix"/>
<feColorMatrix in="SourceAlpha" type="matrix" values="0 0 0 0 0 0 0 0 0 0 0 0 0 0 0 0 0 0 127 0"/>
<feOffset dx="-1" dy="-1"/>
<feGaussianBlur stdDeviation="2"/>
<feColorMatrix type="matrix" values="0 0 0 0 0.458333 0 0 0 0 1 0 0 0 0 0.74 0 0 0 0.4 0"/>
<feBlend mode="normal" in2="BackgroundImageFix" result="effect1_dropShadow"/>
<feColorMatrix in="SourceAlpha" type="matrix" values="0 0 0 0 0 0 0 0 0 0 0 0 0 0 0 0 0 0 127 0"/>
<feOffset dy="4"/>
<feGaussianBlur stdDeviation="2"/>
<feColorMatrix type="matrix" values="0 0 0 0 0 0 0 0 0 0 0 0 0 0 0 0 0 0 0.25 0"/>
<feBlend mode="normal" in2="effect1_dropShadow" result="effect2_dropShadow"/>
<feBlend mode="normal" in="SourceGraphic" in2="effect2_dropShadow" result="shape"/>
</filter>
</defs>
</svg>
