<svg width="24" height="24" viewBox="0 0 24 24" fill="none" xmlns="http://www.w3.org/2000/svg">
<g clip-path="url(#clip0)">
<g filter="url(#filter0_d)">
<path d="M19 10.82C18.7348 10.82 18.4804 10.9254 18.2929 11.1129C18.1054 11.3004 18 11.5548 18 11.82V19C18 19.2652 17.8946 19.5196 17.7071 19.7071C17.5196 19.8946 17.2652 20 17 20H6C5.73478 20 5.48043 19.8946 5.29289 19.7071C5.10536 19.5196 5 19.2652 5 19V8C5 7.73478 5.10536 7.48043 5.29289 7.29289C5.48043 7.10536 5.73478 7 6 7H13.18C13.4452 7 13.6996 6.89464 13.8871 6.70711C14.0746 6.51957 14.18 6.26522 14.18 6C14.18 5.73478 14.0746 5.48043 13.8871 5.29289C13.6996 5.10536 13.4452 5 13.18 5H6C5.20435 5 4.44129 5.31607 3.87868 5.87868C3.31607 6.44129 3 7.20435 3 8V19C3 19.7956 3.31607 20.5587 3.87868 21.1213C4.44129 21.6839 5.20435 22 6 22H17C17.7956 22 18.5587 21.6839 19.1213 21.1213C19.6839 20.5587 20 19.7956 20 19V11.82C20 11.5548 19.8946 11.3004 19.7071 11.1129C19.5196 10.9254 19.2652 10.82 19 10.82ZM22.92 2.62C22.8185 2.37565 22.6243 2.18147 22.38 2.08C22.2598 2.02876 22.1307 2.00158 22 2H16C15.7348 2 15.4804 2.10536 15.2929 2.29289C15.1054 2.48043 15 2.73478 15 3C15 3.26522 15.1054 3.51957 15.2929 3.70711C15.4804 3.89464 15.7348 4 16 4H19.59L9.29 14.29C9.19627 14.383 9.12188 14.4936 9.07111 14.6154C9.02034 14.7373 8.9942 14.868 8.9942 15C8.9942 15.132 9.02034 15.2627 9.07111 15.3846C9.12188 15.5064 9.19627 15.617 9.29 15.71C9.38296 15.8037 9.49356 15.8781 9.61542 15.9289C9.73728 15.9797 9.86799 16.0058 10 16.0058C10.132 16.0058 10.2627 15.9797 10.3846 15.9289C10.5064 15.8781 10.617 15.8037 10.71 15.71L21 5.41V9C21 9.26522 21.1054 9.51957 21.2929 9.70711C21.4804 9.89464 21.7348 10 22 10C22.2652 10 22.5196 9.89464 22.7071 9.70711C22.8946 9.51957 23 9.26522 23 9V3C22.9984 2.86932 22.9712 2.74022 22.92 2.62Z" fill="white"/>
</g>
</g>
<defs>
<filter id="filter0_d" x="-2" y="1" width="30" height="30" filterUnits="userSpaceOnUse" color-interpolation-filters="sRGB">
<feFlood flood-opacity="0" result="BackgroundImageFix"/>
<feColorMatrix in="SourceAlpha" type="matrix" values="0 0 0 0 0 0 0 0 0 0 0 0 0 0 0 0 0 0 127 0"/>
<feOffset dy="4"/>
<feGaussianBlur stdDeviation="2.5"/>
<feColorMatrix type="matrix" values="0 0 0 0 0.0238889 0 0 0 0 0.358333 0 0 0 0 0.1978 0 0 0 0.3 0"/>
<feBlend mode="normal" in2="BackgroundImageFix" result="effect1_dropShadow"/>
<feBlend mode="normal" in="SourceGraphic" in2="effect1_dropShadow" result="shape"/>
</filter>
<clipPath id="clip0">
<rect width="24" height="24" fill="white"/>
</clipPath>
</defs>
</svg>
