<svg width="36" height="36" viewBox="0 0 36 36" fill="none" xmlns="http://www.w3.org/2000/svg">
<g filter="url(#filter0_d)">
<path d="M18 3.5C15.5756 3.50461 13.2049 4.21414 11.1765 5.54217C9.14822 6.87021 7.54987 8.75943 6.57618 10.9797C5.60248 13.2 5.29547 15.6555 5.69253 18.0472C6.0896 20.4389 7.1736 22.6635 8.8125 24.45C9.98303 25.7188 11.4037 26.7314 12.9849 27.424C14.5662 28.1166 16.2737 28.4742 18 28.4742C19.7263 28.4742 21.4338 28.1166 23.0151 27.424C24.5963 26.7314 26.017 25.7188 27.1875 24.45C28.8264 22.6635 29.9104 20.4389 30.3075 18.0472C30.7045 15.6555 30.3975 13.2 29.4238 10.9797C28.4501 8.75943 26.8518 6.87021 24.8235 5.54217C22.7951 4.21414 20.4244 3.50461 18 3.5V3.5ZM18 26C15.4106 25.9961 12.9236 24.9878 11.0625 23.1875C11.6276 21.8119 12.5888 20.6354 13.8241 19.8074C15.0593 18.9793 16.5129 18.5373 18 18.5373C19.4871 18.5373 20.9407 18.9793 22.1759 19.8074C23.4112 20.6354 24.3724 21.8119 24.9375 23.1875C23.0764 24.9878 20.5894 25.9961 18 26ZM15.5 13.5C15.5 13.0055 15.6466 12.5222 15.9213 12.1111C16.196 11.7 16.5865 11.3795 17.0433 11.1903C17.5001 11.0011 18.0028 10.9516 18.4877 11.048C18.9727 11.1445 19.4181 11.3826 19.7678 11.7322C20.1174 12.0819 20.3555 12.5273 20.452 13.0123C20.5484 13.4972 20.4989 13.9999 20.3097 14.4567C20.1205 14.9135 19.8 15.304 19.3889 15.5787C18.9778 15.8534 18.4945 16 18 16C17.337 16 16.7011 15.7366 16.2322 15.2678C15.7634 14.7989 15.5 14.163 15.5 13.5ZM26.6375 21C25.5207 19.0897 23.8018 17.6038 21.75 16.775C22.3865 16.0533 22.8012 15.1633 22.9443 14.2118C23.0875 13.2603 22.9531 12.2876 22.5572 11.4106C22.1613 10.5336 21.5207 9.78945 20.7124 9.26746C19.904 8.74547 18.9622 8.46781 18 8.46781C17.0378 8.46781 16.096 8.74547 15.2876 9.26746C14.4793 9.78945 13.8387 10.5336 13.4428 11.4106C13.0469 12.2876 12.9125 13.2603 13.0557 14.2118C13.1988 15.1633 13.6135 16.0533 14.25 16.775C12.1982 17.6038 10.4793 19.0897 9.3625 21C8.47243 19.4839 8.00215 17.7581 8 16C8 13.3478 9.05357 10.8043 10.9289 8.92893C12.8043 7.05357 15.3478 6 18 6C20.6522 6 23.1957 7.05357 25.0711 8.92893C26.9464 10.8043 28 13.3478 28 16C27.9979 17.7581 27.5276 19.4839 26.6375 21V21Z" fill="white"/>
</g>
<defs>
<filter id="filter0_d" x="0.523743" y="0.5" width="34.9525" height="34.9742" filterUnits="userSpaceOnUse" color-interpolation-filters="sRGB">
<feFlood flood-opacity="0" result="BackgroundImageFix"/>
<feColorMatrix in="SourceAlpha" type="matrix" values="0 0 0 0 0 0 0 0 0 0 0 0 0 0 0 0 0 0 127 0"/>
<feOffset dy="2"/>
<feGaussianBlur stdDeviation="2.5"/>
<feColorMatrix type="matrix" values="0 0 0 0 0.0238889 0 0 0 0 0.358333 0 0 0 0 0.1978 0 0 0 0.3 0"/>
<feBlend mode="normal" in2="BackgroundImageFix" result="effect1_dropShadow"/>
<feBlend mode="normal" in="SourceGraphic" in2="effect1_dropShadow" result="shape"/>
</filter>
</defs>
</svg>
