<svg width="30" height="34" viewBox="0 0 30 34" fill="none" xmlns="http://www.w3.org/2000/svg">
<g filter="url(#filter0_d)">
<path d="M17.5 15C17.5 14.5055 17.3534 14.0222 17.0787 13.6111C16.804 13.2 16.4135 12.8795 15.9567 12.6903C15.4999 12.5011 14.9972 12.4516 14.5123 12.548C14.0273 12.6445 13.5819 12.8826 13.2322 13.2322C12.8826 13.5819 12.6445 14.0273 12.548 14.5123C12.4516 14.9972 12.5011 15.4999 12.6903 15.9567C12.8795 16.4135 13.2 16.804 13.6111 17.0787C14.0222 17.3534 14.5055 17.5 15 17.5C15.663 17.5 16.2989 17.2366 16.7678 16.7678C17.2366 16.2989 17.5 15.663 17.5 15ZM17.5 6.25C17.5 5.75555 17.3534 5.2722 17.0787 4.86108C16.804 4.44995 16.4135 4.12952 15.9567 3.9403C15.4999 3.75108 14.9972 3.70157 14.5123 3.79804C14.0273 3.8945 13.5819 4.1326 13.2322 4.48223C12.8826 4.83187 12.6445 5.27732 12.548 5.76228C12.4516 6.24723 12.5011 6.74989 12.6903 7.20671C12.8795 7.66353 13.2 8.05397 13.6111 8.32867C14.0222 8.60338 14.5055 8.75 15 8.75C15.663 8.75 16.2989 8.48661 16.7678 8.01777C17.2366 7.54893 17.5 6.91304 17.5 6.25ZM17.5 23.75C17.5 23.2555 17.3534 22.7722 17.0787 22.3611C16.804 21.95 16.4135 21.6295 15.9567 21.4403C15.4999 21.2511 14.9972 21.2016 14.5123 21.298C14.0273 21.3945 13.5819 21.6326 13.2322 21.9822C12.8826 22.3319 12.6445 22.7773 12.548 23.2623C12.4516 23.7472 12.5011 24.2499 12.6903 24.7067C12.8795 25.1635 13.2 25.554 13.6111 25.8287C14.0222 26.1034 14.5055 26.25 15 26.25C15.663 26.25 16.2989 25.9866 16.7678 25.5178C17.2366 25.0489 17.5 24.413 17.5 23.75Z" fill="white"/>
</g>
<defs>
<filter id="filter0_d" x="7.5" y="0.75" width="15" height="32.5" filterUnits="userSpaceOnUse" color-interpolation-filters="sRGB">
<feFlood flood-opacity="0" result="BackgroundImageFix"/>
<feColorMatrix in="SourceAlpha" type="matrix" values="0 0 0 0 0 0 0 0 0 0 0 0 0 0 0 0 0 0 127 0"/>
<feOffset dy="2"/>
<feGaussianBlur stdDeviation="2.5"/>
<feColorMatrix type="matrix" values="0 0 0 0 0.0238889 0 0 0 0 0.358333 0 0 0 0 0.1978 0 0 0 0.3 0"/>
<feBlend mode="normal" in2="BackgroundImageFix" result="effect1_dropShadow"/>
<feBlend mode="normal" in="SourceGraphic" in2="effect1_dropShadow" result="shape"/>
</filter>
</defs>
</svg>
